<?xml version="1.0" encoding="UTF-8"?>
<svg xmlns="http://www.w3.org/2000/svg" xmlns:xlink="http://www.w3.org/1999/xlink" width="15px" height="15px" viewBox="0 0 15 15" version="1.1">
<g id="surface1">
<path style=" stroke:none;fill-rule:nonzero;fill:gba(251, 37, 118, 0.7);fill-opacity:1;" d="M 7.5 0 C 3.367188 0 0 3.367188 0 7.5 C 0 11.632812 3.367188 15 7.5 15 C 11.632812 15 15 11.632812 15 7.5 C 15 3.367188 11.632812 0 7.5 0 Z M 7.5 13.636719 C 4.113281 13.632812 1.367188 10.886719 1.363281 7.5 C 1.367188 4.113281 4.113281 1.367188 7.5 1.363281 C 10.886719 1.367188 13.632812 4.113281 13.636719 7.5 C 13.632812 10.886719 10.886719 13.632812 7.5 13.636719 Z M 7.5 13.636719 "/>
<path style=" stroke:none;fill-rule:nonzero;fill:rgb(86.27451%,7.843137%,23.529412%);fill-opacity:1;" d="M 10.3125 4.847656 L 6.457031 8.703125 L 4.6875 6.9375 C 4.417969 6.695312 4.003906 6.707031 3.746094 6.964844 C 3.492188 7.21875 3.480469 7.632812 3.726562 7.902344 L 5.972656 10.152344 C 6.101562 10.28125 6.273438 10.351562 6.453125 10.351562 C 6.636719 10.351562 6.808594 10.28125 6.9375 10.152344 L 11.277344 5.8125 C 11.40625 5.683594 11.476562 5.511719 11.476562 5.332031 C 11.476562 5.148438 11.40625 4.976562 11.277344 4.851562 C 11.148438 4.722656 10.976562 4.648438 10.792969 4.648438 C 10.613281 4.648438 10.441406 4.722656 10.3125 4.851562 Z M 10.3125 4.847656 "/>
</g>
</svg>
