<?xml version="1.0" encoding="UTF-8"?>
<svg xmlns="http://www.w3.org/2000/svg" xmlns:xlink="http://www.w3.org/1999/xlink" width="140px" height="140px" viewBox="0 0 140 140" version="1.1">
<g id="surface1">
<path style=" stroke:none;fill-rule:nonzero;fill:rgb(255,255,255);fill-opacity:1;" d="M 88.621094 34.453125 L 51.378906 34.453125 C 42.054688 34.453125 34.453125 42.054688 34.453125 51.378906 L 34.453125 88.621094 C 34.453125 97.945312 42.054688 105.546875 51.378906 105.546875 L 88.621094 105.546875 C 97.945312 105.546875 105.546875 97.945312 105.546875 88.621094 L 105.546875 51.378906 C 105.546875 42.054688 97.945312 34.453125 88.621094 34.453125 Z M 70 92.121094 C 57.804688 92.121094 47.878906 82.195312 47.878906 70 C 47.878906 57.804688 57.804688 47.878906 70 47.878906 C 82.195312 47.878906 92.121094 57.804688 92.121094 70 C 92.121094 82.195312 82.195312 92.121094 70 92.121094 Z M 92.722656 52.390625 C 89.878906 52.390625 87.554688 50.066406 87.554688 47.222656 C 87.554688 44.351562 89.878906 42.054688 92.722656 42.054688 C 95.59375 42.054688 97.917969 44.351562 97.917969 47.222656 C 97.917969 50.066406 95.59375 52.390625 92.722656 52.390625 Z M 70 55.398438 C 61.960938 55.398438 55.398438 61.960938 55.398438 70 C 55.398438 78.039062 61.960938 84.601562 70 84.601562 C 78.039062 84.601562 84.601562 78.039062 84.601562 70 C 84.601562 61.960938 78.039062 55.398438 70 55.398438 Z M 70 1.066406 C 31.9375 1.066406 1.066406 31.9375 1.066406 70 C 1.066406 108.0625 31.9375 138.933594 70 138.933594 C 108.0625 138.933594 138.933594 108.0625 138.933594 70 C 138.933594 31.9375 108.0625 1.066406 70 1.066406 Z M 113.066406 88.621094 C 113.066406 102.101562 102.101562 113.066406 88.621094 113.066406 L 51.378906 113.066406 C 37.898438 113.066406 26.933594 102.101562 26.933594 88.621094 L 26.933594 51.378906 C 26.933594 37.898438 37.898438 26.933594 51.378906 26.933594 L 88.621094 26.933594 C 102.101562 26.933594 113.066406 37.898438 113.066406 51.378906 Z M 113.066406 88.621094 "/>
</g>
</svg>
