<?xml version="1.0" encoding="UTF-8"?>
<svg xmlns="http://www.w3.org/2000/svg" xmlns:xlink="http://www.w3.org/1999/xlink" width="50px" height="50px" viewBox="0 0 50 50" version="1.1">
<g id="surface1">
<path style=" stroke:none;fill-rule:nonzero;fill:rgb(255,255,255);fill-opacity:1;" d="M 25.074219 23.207031 L 36.183594 23.207031 L 36.183594 29.082031 L 25.074219 29.082031 Z M 22.070312 13.300781 L 13.023438 13.300781 L 13.699219 20.207031 L 22.070312 20.207031 Z M 22.070312 29.082031 L 22.070312 23.207031 L 13.992188 23.207031 L 14.5625 29.082031 Z M 22.070312 4.417969 L 12.160156 4.417969 L 12.734375 10.296875 L 22.070312 10.296875 Z M 39.1875 29.082031 L 45.195312 29.082031 L 46.339844 23.207031 L 39.1875 23.207031 Z M 25.074219 4.417969 L 36.183594 4.417969 L 36.183594 10.292969 L 25.074219 10.292969 Z M 25.074219 13.300781 L 36.183594 13.300781 L 36.183594 20.203125 L 25.074219 20.203125 Z M 39.1875 10.296875 L 48.851562 10.296875 L 49.996094 4.417969 L 39.1875 4.417969 Z M 39.1875 20.207031 L 46.921875 20.207031 L 48.265625 13.300781 L 39.1875 13.300781 Z M 39.1875 20.207031 "/>
<path style=" stroke:none;fill-rule:nonzero;fill:rgb(255,255,255);fill-opacity:1;" d="M 9.039062 2.917969 L 0 2.917969 L 0 5.921875 L 6.273438 5.921875 L 8.675781 35.089844 L 45.195312 35.089844 L 45.195312 32.085938 L 11.441406 32.085938 Z M 18.019531 42.5 C 18.019531 45.027344 15.964844 47.082031 13.4375 47.082031 C 10.90625 47.082031 8.855469 45.027344 8.859375 42.5 C 8.890625 39.992188 10.933594 37.980469 13.4375 37.980469 C 15.945312 37.980469 17.984375 39.992188 18.019531 42.5 Z M 44.289062 42.5 C 44.292969 45.027344 42.242188 47.078125 39.710938 47.082031 C 37.183594 47.082031 35.132812 45.03125 35.132812 42.5 C 35.132812 39.972656 37.179688 37.921875 39.710938 37.917969 C 42.238281 37.917969 44.289062 39.96875 44.292969 42.5 Z M 44.289062 42.5 "/>
</g>
</svg>
