<?xml version="1.0" encoding="UTF-8"?>
<svg xmlns="http://www.w3.org/2000/svg" xmlns:xlink="http://www.w3.org/1999/xlink" width="140px" height="140px" viewBox="0 0 140 140" version="1.1">
<g id="surface1">
<path style=" stroke:none;fill-rule:nonzero;fill:rgb(255, 255, 255);fill-opacity:1;" d="M 69.820312 0 C 31.261719 0 0 31.261719 0 69.820312 C 0 108.382812 31.261719 139.644531 69.820312 139.644531 C 108.382812 139.644531 139.644531 108.382812 139.644531 69.820312 C 139.644531 31.261719 108.382812 0 69.820312 0 Z M 43.660156 117.09375 L 24.03125 117.09375 L 24.03125 53.941406 L 43.660156 53.941406 Z M 33.851562 45.308594 C 27.558594 45.308594 22.464844 40.207031 22.464844 33.925781 C 22.46875 27.648438 27.558594 22.546875 33.851562 22.546875 C 40.125 22.546875 45.222656 27.648438 45.222656 33.925781 C 45.222656 40.207031 40.121094 45.308594 33.851562 45.308594 Z M 117.175781 117.09375 L 97.5625 117.09375 L 97.5625 86.382812 C 97.5625 79.058594 97.425781 69.636719 87.359375 69.636719 C 77.152344 69.636719 75.582031 77.613281 75.582031 85.851562 L 75.582031 117.09375 L 55.96875 117.09375 L 55.96875 53.941406 L 74.796875 53.941406 L 74.796875 62.570312 L 75.058594 62.570312 C 77.679688 57.605469 84.082031 52.371094 93.632812 52.371094 C 113.507812 52.371094 117.175781 65.449219 117.175781 82.453125 Z M 117.175781 117.09375 "/>
</g>
</svg>
