<?xml version="1.0" encoding="UTF-8"?>
<svg xmlns="http://www.w3.org/2000/svg" xmlns:xlink="http://www.w3.org/1999/xlink" width="140px" height="140px" viewBox="0 0 140 140" version="1.1">
<g id="surface1">
<path style=" stroke:none;fill-rule:nonzero;fill:rgb(255, 255, 255);fill-opacity:1;" d="M 70 1.078125 C 31.9375 1.078125 1.078125 31.9375 1.078125 70 C 1.078125 108.0625 31.9375 138.921875 70 138.921875 C 108.0625 138.921875 138.921875 108.0625 138.921875 70 C 138.921875 31.9375 108.0625 1.078125 70 1.078125 Z M 104.503906 52.277344 L 104.5625 54.582031 C 104.5625 81.839844 86.65625 105.269531 53.882812 105.269531 C 43.820312 105.269531 34.460938 102.320312 26.578125 97.25 C 27.972656 97.414062 29.390625 97.5 30.828125 97.5 C 39.171875 97.5 46.855469 94.660156 52.945312 89.886719 C 45.15625 89.746094 38.714844 84.996094 36.449219 77.914062 C 39.199219 78.355469 42.511719 77.980469 44.359375 77.222656 C 40.289062 76.398438 36.71875 74.1875 34.160156 71.105469 C 31.609375 68.023438 30.074219 64.066406 30.074219 59.753906 C 32.476562 61.089844 35.222656 61.664062 38.140625 61.765625 C 33.363281 58.574219 30.21875 53.121094 30.21875 46.9375 C 30.21875 43.675781 31.089844 40.609375 32.625 37.988281 C 41.414062 48.761719 54.539062 55.855469 69.34375 56.597656 C 69.035156 55.292969 68.878906 53.933594 68.878906 52.539062 C 68.878906 42.707031 76.859375 34.730469 86.699219 34.730469 C 91.824219 34.730469 96.140625 36.878906 99.140625 39.804688 C 102.507812 39.691406 107.152344 38.074219 111.015625 36.035156 C 109.683594 40.183594 106.863281 43.679688 103.183594 45.882812 C 106.789062 45.742188 109.878906 44.992188 113.070312 43.578125 C 110.691406 47.148438 108.003906 49.785156 104.503906 52.277344 Z M 104.503906 52.277344 "/>
</g>
</svg>
