<?xml version="1.0" encoding="UTF-8"?>
<svg xmlns="http://www.w3.org/2000/svg" xmlns:xlink="http://www.w3.org/1999/xlink" width="90px" height="90px" viewBox="0 0 90 90" version="1.1">
<g id="surface1">
<path style=" stroke:none;fill-rule:nonzero;fill:rgb(0%,0%,0%);fill-opacity:1;" d="M 74.160156 15.496094 C 66.1875 7.503906 55.566406 3.121094 44.261719 3.121094 C 32.972656 3.121094 22.351562 7.503906 14.359375 15.496094 C 6.371094 23.488281 1.964844 34.105469 1.964844 45.398438 C 1.964844 56.6875 6.371094 67.308594 14.359375 75.300781 C 22.351562 83.292969 32.972656 87.695312 44.261719 87.695312 C 55.550781 87.695312 66.167969 83.292969 74.160156 75.300781 C 82.152344 67.308594 86.558594 56.6875 86.558594 45.398438 C 86.558594 34.105469 82.152344 23.488281 74.160156 15.496094 Z M 80.792969 44.957031 C 78.859375 40.167969 76.292969 35.699219 73.152344 31.691406 C 75.074219 32.195312 76.957031 32.808594 78.777344 33.523438 C 80.058594 37.195312 80.742188 41.058594 80.792969 44.957031 Z M 77.199219 29.644531 C 74.8125 28.847656 72.359375 28.214844 69.84375 27.792969 C 65.878906 23.570312 61.285156 19.976562 56.183594 17.167969 C 57.839844 15.707031 59.597656 14.371094 61.429688 13.152344 C 68.316406 16.828125 73.835938 22.613281 77.199219 29.644531 Z M 64.839844 27.191406 C 63.671875 27.109375 62.503906 27.0625 61.332031 27.0625 C 60.925781 27.0625 60.519531 27.0625 60.113281 27.074219 C 59.367188 25.597656 57.855469 24.675781 56.199219 24.675781 C 54.214844 24.675781 52.480469 26.019531 51.980469 27.9375 C 50.042969 28.308594 48.144531 28.78125 46.273438 29.367188 C 48.335938 25.710938 50.871094 22.363281 53.792969 19.394531 C 57.824219 21.519531 61.527344 24.136719 64.839844 27.191406 Z M 34.304688 10.246094 C 37.539062 9.324219 40.898438 8.867188 44.261719 8.855469 C 49.035156 8.855469 53.761719 9.792969 58.179688 11.628906 C 56.441406 12.863281 54.785156 14.210938 53.226562 15.660156 C 47.347656 12.863281 40.898438 11.078125 34.09375 10.527344 C 34.15625 10.425781 34.238281 10.347656 34.304688 10.246094 Z M 50.871094 17.980469 C 47.269531 21.777344 44.246094 26.152344 41.972656 30.941406 C 38.574219 32.355469 35.375 34.144531 32.417969 36.238281 C 31.085938 36.160156 29.757812 36.109375 28.410156 36.109375 C 26.800781 36.109375 25.191406 36.167969 23.582031 36.285156 C 23.878906 34.105469 24.300781 31.980469 24.847656 29.902344 C 27.535156 29.808594 29.691406 27.613281 29.691406 24.898438 C 29.691406 23.371094 29.011719 22.007812 27.9375 21.097656 C 29.105469 18.449219 30.488281 15.917969 32.03125 13.515625 C 38.722656 13.824219 45.074219 15.378906 50.871094 17.980469 Z M 40.183594 35.183594 C 39.957031 35.796875 39.746094 36.429688 39.535156 37.066406 C 38.804688 36.933594 38.089844 36.824219 37.355469 36.722656 C 38.269531 36.1875 39.207031 35.667969 40.183594 35.183594 Z M 23.246094 39.4375 C 24.949219 39.289062 26.667969 39.226562 28.410156 39.226562 C 28.472656 39.226562 28.519531 39.226562 28.589844 39.226562 C 26.605469 40.929688 24.753906 42.800781 23.066406 44.78125 C 23.066406 44.535156 23.066406 44.277344 23.066406 44.035156 C 23.066406 42.488281 23.128906 40.964844 23.246094 39.4375 Z M 26.410156 13.566406 C 27.074219 13.527344 27.746094 13.480469 28.410156 13.464844 C 27.171875 15.527344 26.054688 17.691406 25.058594 19.914062 C 24.933594 19.894531 24.816406 19.894531 24.6875 19.894531 C 21.929688 19.894531 19.683594 22.140625 19.683594 24.898438 C 19.683594 26.621094 20.550781 28.128906 21.878906 29.042969 C 21.246094 31.511719 20.742188 34.027344 20.433594 36.613281 C 16.292969 37.113281 12.230469 38.039062 8.28125 39.324219 C 10.121094 28.425781 16.777344 18.96875 26.410156 13.566406 Z M 12.910156 64.105469 C 9.535156 58.457031 7.730469 51.988281 7.714844 45.398438 C 7.730469 44.503906 7.761719 43.613281 7.847656 42.71875 C 11.808594 41.339844 15.902344 40.347656 20.089844 39.777344 C 19.996094 41.191406 19.945312 42.605469 19.945312 44.035156 C 19.945312 45.578125 20.011719 47.089844 20.125 48.597656 C 16.894531 53.257812 14.441406 58.488281 12.910156 64.105469 Z M 31.851562 79.714844 C 25.269531 77.347656 19.503906 73.125 15.253906 67.566406 C 16.308594 62.515625 18.175781 57.757812 20.691406 53.457031 C 21.050781 55.730469 21.554688 57.957031 22.152344 60.128906 C 21.164062 60.957031 20.582031 62.195312 20.582031 63.492188 C 20.582031 65.898438 22.511719 67.847656 24.917969 67.859375 C 26.785156 72.097656 29.105469 76.082031 31.851562 79.714844 Z M 44.261719 81.941406 C 41.839844 81.941406 39.4375 81.699219 37.066406 81.230469 C 33.300781 76.941406 30.179688 72.066406 27.839844 66.792969 C 28.800781 65.957031 29.335938 64.761719 29.335938 63.492188 C 29.335938 61.136719 27.449219 59.203125 25.097656 59.125 C 24.234375 56.003906 23.628906 52.773438 23.308594 49.457031 C 26.117188 45.628906 29.480469 42.246094 33.28125 39.417969 C 35.082031 39.566406 36.871094 39.777344 38.644531 40.074219 C 37.636719 44.050781 37.082031 48.207031 37.082031 52.496094 C 37.082031 59.234375 38.414062 65.652344 40.832031 71.511719 C 40.054688 72.328125 39.613281 73.414062 39.613281 74.535156 C 39.613281 76.957031 41.582031 78.921875 44 78.921875 C 44.199219 78.921875 44.410156 78.910156 44.601562 78.871094 C 45.234375 79.894531 45.902344 80.886719 46.597656 81.863281 C 45.839844 81.910156 45.054688 81.941406 44.261719 81.941406 Z M 50.1875 81.457031 C 49.167969 80.15625 48.226562 78.792969 47.347656 77.394531 C 48.027344 76.597656 48.402344 75.589844 48.402344 74.550781 C 48.402344 72.136719 46.433594 70.167969 44.019531 70.167969 C 43.902344 70.167969 43.777344 70.167969 43.660156 70.183594 C 41.433594 64.730469 40.214844 58.761719 40.214844 52.496094 C 40.214844 48.402344 40.738281 44.441406 41.714844 40.667969 C 44.957031 41.386719 48.125 42.359375 51.214844 43.566406 C 51.183594 43.777344 51.164062 44 51.164062 44.230469 C 51.164062 46.988281 53.40625 49.230469 56.164062 49.230469 C 57.582031 49.230469 58.847656 48.648438 59.757812 47.703125 C 64.316406 50.367188 68.574219 53.628906 72.378906 57.433594 C 73.902344 58.960938 75.316406 60.554688 76.664062 62.207031 C 71.371094 72.441406 61.558594 79.574219 50.1875 81.457031 Z M 80.058594 52.738281 C 79.605469 54.917969 78.957031 57.027344 78.125 59.089844 C 77.007812 57.777344 75.820312 56.488281 74.582031 55.257812 C 70.527344 51.195312 65.996094 47.738281 61.121094 44.925781 C 61.152344 44.699219 61.167969 44.472656 61.167969 44.246094 C 61.167969 41.484375 58.925781 39.238281 56.164062 39.238281 C 54.753906 39.238281 53.46875 39.824219 52.5625 40.769531 C 49.332031 39.488281 46 38.445312 42.589844 37.683594 C 43.074219 36.207031 43.625 34.777344 44.261719 33.363281 C 46.847656 32.355469 49.523438 31.574219 52.300781 31.039062 C 53.046875 32.503906 54.558594 33.425781 56.199219 33.425781 C 58.179688 33.425781 59.902344 32.09375 60.421875 30.179688 C 60.730469 30.179688 61.027344 30.160156 61.332031 30.160156 C 63.703125 30.160156 66.042969 30.34375 68.316406 30.683594 C 73.871094 36.886719 77.964844 44.410156 80.058594 52.738281 Z M 80.058594 52.738281 "/>
</g>
</svg>
