<?xml version="1.0" encoding="UTF-8"?>
<svg xmlns="http://www.w3.org/2000/svg" xmlns:xlink="http://www.w3.org/1999/xlink" width="50px" height="50px" viewBox="0 0 50 50" version="1.1">
<g id="surface1">
<path style=" stroke:none;fill-rule:nonzero;fill:rgb(0%,0%,0%);fill-opacity:1;" d="M 41.199219 8.609375 C 36.769531 4.167969 30.871094 1.734375 24.589844 1.734375 C 18.316406 1.734375 12.417969 4.167969 7.976562 8.609375 C 3.539062 13.050781 1.089844 18.949219 1.089844 25.222656 C 1.089844 31.492188 3.539062 37.394531 7.976562 41.832031 C 12.417969 46.273438 18.316406 48.71875 24.589844 48.71875 C 30.863281 48.71875 36.761719 46.273438 41.199219 41.832031 C 45.640625 37.394531 48.089844 31.492188 48.089844 25.222656 C 48.089844 18.949219 45.640625 13.050781 41.199219 8.609375 Z M 44.886719 24.976562 C 43.8125 22.316406 42.386719 19.832031 40.640625 17.605469 C 41.707031 17.886719 42.753906 18.226562 43.765625 18.625 C 44.476562 20.664062 44.855469 22.808594 44.886719 24.976562 Z M 42.886719 16.46875 C 41.5625 16.027344 40.199219 15.675781 38.800781 15.441406 C 36.597656 13.09375 34.046875 11.097656 31.214844 9.539062 C 32.132812 8.726562 33.109375 7.984375 34.128906 7.308594 C 37.953125 9.347656 41.019531 12.5625 42.886719 16.46875 Z M 36.023438 15.105469 C 35.375 15.0625 34.722656 15.035156 34.074219 15.035156 C 33.847656 15.035156 33.621094 15.035156 33.394531 15.042969 C 32.980469 14.222656 32.140625 13.707031 31.222656 13.707031 C 30.121094 13.707031 29.15625 14.457031 28.878906 15.519531 C 27.800781 15.726562 26.746094 15.988281 25.707031 16.316406 C 26.851562 14.285156 28.261719 12.425781 29.886719 10.773438 C 32.125 11.957031 34.183594 13.410156 36.023438 15.105469 Z M 19.058594 5.691406 C 20.855469 5.179688 22.722656 4.925781 24.589844 4.917969 C 27.242188 4.917969 29.867188 5.441406 32.320312 6.460938 C 31.355469 7.144531 30.4375 7.894531 29.570312 8.699219 C 26.304688 7.144531 22.722656 6.15625 18.941406 5.847656 C 18.976562 5.792969 19.019531 5.75 19.058594 5.691406 Z M 28.261719 9.988281 C 26.261719 12.097656 24.582031 14.527344 23.316406 17.191406 C 21.429688 17.976562 19.652344 18.96875 18.011719 20.132812 C 17.269531 20.089844 16.53125 20.0625 15.785156 20.0625 C 14.890625 20.0625 13.996094 20.09375 13.101562 20.160156 C 13.265625 18.949219 13.5 17.765625 13.804688 16.613281 C 15.296875 16.558594 16.496094 15.339844 16.496094 13.832031 C 16.496094 12.984375 16.117188 12.226562 15.519531 11.722656 C 16.167969 10.25 16.9375 8.84375 17.796875 7.507812 C 21.511719 7.679688 25.042969 8.542969 28.261719 9.988281 Z M 22.324219 19.546875 C 22.199219 19.886719 22.082031 20.238281 21.964844 20.59375 C 21.558594 20.519531 21.160156 20.457031 20.753906 20.402344 C 21.261719 20.105469 21.78125 19.816406 22.324219 19.546875 Z M 12.914062 21.910156 C 13.859375 21.828125 14.816406 21.792969 15.785156 21.792969 C 15.816406 21.792969 15.84375 21.792969 15.882812 21.792969 C 14.78125 22.738281 13.753906 23.777344 12.816406 24.878906 C 12.816406 24.742188 12.816406 24.597656 12.816406 24.464844 C 12.816406 23.605469 12.847656 22.757812 12.914062 21.910156 Z M 14.671875 7.535156 C 15.042969 7.515625 15.414062 7.488281 15.785156 7.480469 C 15.09375 8.625 14.476562 9.828125 13.921875 11.0625 C 13.851562 11.050781 13.785156 11.050781 13.714844 11.050781 C 12.183594 11.050781 10.933594 12.300781 10.933594 13.832031 C 10.933594 14.789062 11.417969 15.628906 12.15625 16.136719 C 11.804688 17.507812 11.523438 18.902344 11.351562 20.339844 C 9.050781 20.617188 6.792969 21.132812 4.601562 21.847656 C 5.621094 15.792969 9.320312 10.539062 14.671875 7.535156 Z M 7.171875 35.613281 C 5.296875 32.476562 4.292969 28.882812 4.285156 25.222656 C 4.292969 24.722656 4.3125 24.230469 4.359375 23.734375 C 6.558594 22.964844 8.835938 22.414062 11.160156 22.097656 C 11.109375 22.882812 11.082031 23.667969 11.082031 24.464844 C 11.082031 25.320312 11.117188 26.160156 11.179688 27 C 9.386719 29.585938 8.023438 32.492188 7.171875 35.613281 Z M 17.695312 44.285156 C 14.039062 42.972656 10.835938 40.625 8.472656 37.535156 C 9.058594 34.730469 10.097656 32.085938 11.496094 29.699219 C 11.695312 30.960938 11.976562 32.199219 12.308594 33.40625 C 11.757812 33.863281 11.433594 34.554688 11.433594 35.273438 C 11.433594 36.609375 12.507812 37.691406 13.84375 37.699219 C 14.878906 40.054688 16.167969 42.269531 17.695312 44.285156 Z M 24.589844 45.523438 C 23.246094 45.523438 21.910156 45.386719 20.59375 45.128906 C 18.5 42.746094 16.765625 40.035156 15.464844 37.105469 C 16 36.644531 16.296875 35.980469 16.296875 35.273438 C 16.296875 33.964844 15.25 32.890625 13.941406 32.847656 C 13.464844 31.113281 13.128906 29.320312 12.949219 27.476562 C 14.507812 25.347656 16.378906 23.46875 18.488281 21.898438 C 19.488281 21.980469 20.484375 22.097656 21.46875 22.261719 C 20.910156 24.472656 20.601562 26.78125 20.601562 29.164062 C 20.601562 32.90625 21.339844 36.472656 22.683594 39.730469 C 22.253906 40.183594 22.007812 40.785156 22.007812 41.410156 C 22.007812 42.753906 23.101562 43.84375 24.445312 43.84375 C 24.554688 43.84375 24.671875 43.839844 24.777344 43.816406 C 25.128906 44.386719 25.5 44.9375 25.886719 45.480469 C 25.464844 45.503906 25.03125 45.523438 24.589844 45.523438 Z M 27.882812 45.253906 C 27.316406 44.53125 26.792969 43.773438 26.304688 42.996094 C 26.683594 42.554688 26.890625 41.996094 26.890625 41.417969 C 26.890625 40.074219 25.796875 38.980469 24.457031 38.980469 C 24.390625 38.980469 24.320312 38.980469 24.253906 38.992188 C 23.019531 35.960938 22.339844 32.644531 22.339844 29.164062 C 22.339844 26.890625 22.632812 24.691406 23.175781 22.59375 C 24.976562 22.992188 26.734375 23.53125 28.453125 24.203125 C 28.433594 24.320312 28.425781 24.445312 28.425781 24.574219 C 28.425781 26.105469 29.671875 27.351562 31.203125 27.351562 C 31.988281 27.351562 32.691406 27.027344 33.199219 26.5 C 35.730469 27.980469 38.097656 29.792969 40.210938 31.90625 C 41.058594 32.757812 41.84375 33.640625 42.589844 34.558594 C 39.652344 40.246094 34.199219 44.207031 27.882812 45.253906 Z M 44.476562 29.300781 C 44.226562 30.511719 43.863281 31.683594 43.402344 32.828125 C 42.78125 32.097656 42.121094 31.382812 41.433594 30.699219 C 39.183594 28.441406 36.664062 26.519531 33.957031 24.957031 C 33.972656 24.832031 33.980469 24.707031 33.980469 24.582031 C 33.980469 23.046875 32.738281 21.800781 31.203125 21.800781 C 30.417969 21.800781 29.703125 22.125 29.203125 22.648438 C 27.40625 21.9375 25.554688 21.359375 23.660156 20.933594 C 23.929688 20.113281 24.234375 19.320312 24.589844 18.535156 C 26.027344 17.976562 27.511719 17.542969 29.054688 17.242188 C 29.46875 18.058594 30.308594 18.570312 31.222656 18.570312 C 32.320312 18.570312 33.277344 17.828125 33.566406 16.765625 C 33.738281 16.765625 33.902344 16.753906 34.074219 16.753906 C 35.390625 16.753906 36.691406 16.859375 37.953125 17.046875 C 41.039062 20.492188 43.3125 24.671875 44.476562 29.300781 Z M 44.476562 29.300781 "/>
</g>
</svg>
